<svg width="100" height="100" viewBox="0 0 100 100" fill="none" xmlns="http://www.w3.org/2000/svg">
<path d="M54.167 16.7039C54.1678 14.4027 52.3032 12.5365 50.002 12.5356C47.7007 12.5347 45.8345 14.3995 45.8336 16.7006L45.8203 50.0483C45.8195 52.3496 47.6845 54.2158 49.9857 54.2167C52.2866 54.2175 54.1528 52.3529 54.1536 50.0517L54.167 16.7039Z" fill="#717171"/>
<path d="M16.6667 54.1321C16.6667 44.9275 20.3976 36.5942 26.4296 30.562L32.3222 36.4546C27.7982 40.9787 25.0001 47.2287 25.0001 54.1321C25.0001 67.9392 36.193 79.1321 50.0001 79.1321C63.8072 79.1321 75.0001 67.9392 75.0001 54.1321C75.0001 47.2283 72.2017 40.9784 67.6776 36.4543L73.5701 30.5617C79.6026 36.5939 83.3334 44.9271 83.3334 54.1321C83.3334 72.5417 68.4097 87.4654 50.0001 87.4654C31.5906 87.4654 16.6667 72.5417 16.6667 54.1321Z" fill="#717171"/>
</svg>
