<svg width="100" height="100" viewBox="0 0 100 100" fill="none" xmlns="http://www.w3.org/2000/svg">
<path d="M50 62.5C56.9036 62.5 62.5 56.9036 62.5 50C62.5 43.0964 56.9036 37.5 50 37.5C43.0964 37.5 37.5 43.0964 37.5 50C37.5 56.9036 43.0964 62.5 50 62.5Z" stroke="#717171" stroke-width="2" stroke-linecap="round" stroke-linejoin="round"/>
<path d="M80.8334 62.5C80.2788 63.7568 80.1133 65.1508 80.3584 66.5025C80.6035 67.8541 81.2478 69.1014 82.2084 70.0833L82.4584 70.3333C83.2332 71.1073 83.8479 72.0264 84.2673 73.038C84.6866 74.0497 84.9025 75.1341 84.9025 76.2292C84.9025 77.3243 84.6866 78.4087 84.2673 79.4204C83.8479 80.432 83.2332 81.3511 82.4584 82.125C81.6845 82.8998 80.7654 83.5145 79.7538 83.9338C78.7421 84.3532 77.6577 84.5691 76.5626 84.5691C75.4675 84.5691 74.3831 84.3532 73.3714 83.9338C72.3598 83.5145 71.4407 82.8998 70.6667 82.125L70.4168 81.875C69.4348 80.9144 68.1875 80.2701 66.8359 80.025C65.4842 79.7799 64.0902 79.9454 62.8334 80.5C61.601 81.0282 60.55 81.9052 59.8097 83.0231C59.0694 84.141 58.6721 85.4509 58.6668 86.7917V87.5C58.6668 89.7102 57.7888 91.8298 56.226 93.3926C54.6632 94.9554 52.5436 95.8334 50.3334 95.8334C48.1233 95.8334 46.0037 94.9554 44.4409 93.3926C42.8781 91.8298 42.0001 89.7102 42.0001 87.5V87.125C41.9678 85.7459 41.5214 84.4083 40.7189 83.2863C39.9163 82.1642 38.7948 81.3095 37.5001 80.8333C36.2434 80.2787 34.8493 80.1133 33.4976 80.3583C32.146 80.6034 30.8987 81.2478 29.9167 82.2083L29.6667 82.4584C28.8928 83.2332 27.9737 83.8478 26.9621 84.2672C25.9504 84.6865 24.866 84.9024 23.7709 84.9024C22.6758 84.9024 21.5914 84.6865 20.5797 84.2672C19.5681 83.8478 18.649 83.2332 17.8751 82.4584C17.1003 81.6844 16.4856 80.7653 16.0663 79.7537C15.6469 78.742 15.431 77.6576 15.431 76.5625C15.431 75.4674 15.6469 74.383 16.0663 73.3713C16.4856 72.3597 17.1003 71.4406 17.8751 70.6667L18.1251 70.4167C19.0857 69.4347 19.73 68.1874 19.9751 66.8358C20.2202 65.4842 20.0547 64.0901 19.5001 62.8334C18.9719 61.601 18.0949 60.5499 16.977 59.8096C15.8591 59.0693 14.5492 58.672 13.2084 58.6667H12.5001C10.2899 58.6667 8.17033 57.7887 6.60753 56.2259C5.04472 54.6631 4.16675 52.5435 4.16675 50.3334C4.16675 48.1232 5.04472 46.0036 6.60753 44.4408C8.17033 42.878 10.2899 42 12.5001 42H12.8751C14.2542 41.9678 15.5918 41.5213 16.7138 40.7188C17.8359 39.9163 18.6906 38.7947 19.1667 37.5C19.7214 36.2433 19.8868 34.8492 19.6418 33.4976C19.3967 32.1459 18.7523 30.8987 17.7917 29.9167L17.5417 29.6667C16.7669 28.8927 16.1523 27.9737 15.7329 26.962C15.3135 25.9504 15.0977 24.866 15.0977 23.7709C15.0977 22.6757 15.3135 21.5913 15.7329 20.5797C16.1523 19.568 16.7669 18.649 17.5417 17.875C18.3157 17.1002 19.2348 16.4856 20.2464 16.0662C21.2581 15.6468 22.3425 15.431 23.4376 15.431C24.5327 15.431 25.6171 15.6468 26.6288 16.0662C27.6404 16.4856 28.5595 17.1002 29.3334 17.875L29.5834 18.125C30.5654 19.0856 31.8127 19.73 33.1643 19.975C34.5159 20.2201 35.91 20.0547 37.1668 19.5H37.5001C38.7325 18.9718 39.7835 18.0948 40.5238 16.977C41.2641 15.8591 41.6614 14.5491 41.6668 13.2084V12.5C41.6668 10.2899 42.5447 8.17027 44.1075 6.60746C45.6703 5.04466 47.7899 4.16669 50.0001 4.16669C52.2102 4.16669 54.3298 5.04466 55.8926 6.60746C57.4554 8.17027 58.3334 10.2899 58.3334 12.5V12.875C58.3388 14.2158 58.7361 15.5258 59.4764 16.6436C60.2167 17.7615 61.2677 18.6385 62.5001 19.1667C63.7568 19.7213 65.1509 19.8868 66.5025 19.6417C67.8542 19.3966 69.1014 18.7523 70.0834 17.7917L70.3334 17.5417C71.1074 16.7669 72.0264 16.1522 73.0381 15.7329C74.0497 15.3135 75.1341 15.0976 76.2293 15.0976C77.3244 15.0976 78.4088 15.3135 79.4204 15.7329C80.4321 16.1522 81.3511 16.7669 82.1251 17.5417C82.8999 18.3156 83.5145 19.2347 83.9339 20.2464C84.3533 21.258 84.5691 22.3424 84.5691 23.4375C84.5691 24.5326 84.3533 25.617 83.9339 26.6287C83.5145 27.6403 82.8999 28.5594 82.1251 29.3334L81.8751 29.5834C80.9145 30.5653 80.2701 31.8126 80.0251 33.1642C79.78 34.5159 79.9454 35.91 80.5001 37.1667V37.5C81.0283 38.7324 81.9053 39.7834 83.0232 40.5237C84.141 41.2641 85.451 41.6613 86.7918 41.6667H87.5001C89.7102 41.6667 91.8298 42.5447 93.3926 44.1075C94.9554 45.6703 95.8334 47.7899 95.8334 50C95.8334 52.2102 94.9554 54.3298 93.3926 55.8926C91.8298 57.4554 89.7102 58.3334 87.5001 58.3334H87.1251C85.7843 58.3387 84.4744 58.736 83.3565 59.4763C82.2386 60.2166 81.3616 61.2676 80.8334 62.5V62.5Z" stroke="#717171" stroke-width="2" stroke-linecap="round" stroke-linejoin="round"/>
</svg>
