<svg width="100" height="100" viewBox="0 0 100 100" fill="none" xmlns="http://www.w3.org/2000/svg">
<path d="M37.4999 91.6667C39.8011 91.6667 41.6666 89.8012 41.6666 87.5C41.6666 85.1988 39.8011 83.3333 37.4999 83.3333C35.1987 83.3333 33.3333 85.1988 33.3333 87.5C33.3333 89.8012 35.1987 91.6667 37.4999 91.6667Z" stroke="#717171" stroke-width="2" stroke-linecap="round" stroke-linejoin="round"/>
<path d="M83.3334 91.6667C85.6346 91.6667 87.5001 89.8012 87.5001 87.5C87.5001 85.1988 85.6346 83.3333 83.3334 83.3333C81.0322 83.3333 79.1667 85.1988 79.1667 87.5C79.1667 89.8012 81.0322 91.6667 83.3334 91.6667Z" stroke="#717171" stroke-width="2" stroke-linecap="round" stroke-linejoin="round"/>
<path d="M4.16675 4.16667H20.8334L32.0001 59.9583C32.3811 61.8767 33.4247 63.5998 34.9482 64.8262C36.4717 66.0527 38.378 66.7041 40.3334 66.6667H80.8334C82.7888 66.7041 84.6952 66.0527 86.2186 64.8262C87.7421 63.5998 88.7857 61.8767 89.1667 59.9583L95.8334 25H25.0001" stroke="#717171" stroke-width="2" stroke-linecap="round" stroke-linejoin="round"/>
</svg>
