<svg width="100" height="100" viewBox="0 0 100 100" fill="none" xmlns="http://www.w3.org/2000/svg">
<path d="M66.6668 12.5H4.16675V66.6667H66.6668V12.5Z" stroke="#717171" stroke-width="2" stroke-linecap="round" stroke-linejoin="round"/>
<path d="M66.6667 33.3333H83.3334L95.8334 45.8333V66.6666H66.6667V33.3333Z" stroke="#717171" stroke-width="2" stroke-linecap="round" stroke-linejoin="round"/>
<path d="M22.9167 87.5C28.6696 87.5 33.3333 82.8363 33.3333 77.0834C33.3333 71.3304 28.6696 66.6667 22.9167 66.6667C17.1637 66.6667 12.5 71.3304 12.5 77.0834C12.5 82.8363 17.1637 87.5 22.9167 87.5Z" stroke="#717171" stroke-width="2" stroke-linecap="round" stroke-linejoin="round"/>
<path d="M77.0834 87.5C82.8364 87.5 87.5001 82.8363 87.5001 77.0834C87.5001 71.3304 82.8364 66.6667 77.0834 66.6667C71.3304 66.6667 66.6667 71.3304 66.6667 77.0834C66.6667 82.8363 71.3304 87.5 77.0834 87.5Z" stroke="#717171" stroke-width="2" stroke-linecap="round" stroke-linejoin="round"/>
</svg>
