<svg width="100" height="100" viewBox="0 0 100 100" fill="none" xmlns="http://www.w3.org/2000/svg">
<path d="M70.8334 87.5V79.1667C70.8334 74.7464 69.0775 70.5072 65.9519 67.3816C62.8263 64.256 58.587 62.5 54.1667 62.5H20.8334C16.4131 62.5 12.1739 64.256 9.0483 67.3816C5.9227 70.5072 4.16675 74.7464 4.16675 79.1667V87.5" stroke="#717171" stroke-width="2" stroke-linecap="round" stroke-linejoin="round"/>
<path d="M37.4999 45.8333C46.7047 45.8333 54.1666 38.3714 54.1666 29.1667C54.1666 19.9619 46.7047 12.5 37.4999 12.5C28.2952 12.5 20.8333 19.9619 20.8333 29.1667C20.8333 38.3714 28.2952 45.8333 37.4999 45.8333Z" stroke="#717171" stroke-width="2" stroke-linecap="round" stroke-linejoin="round"/>
<path d="M95.8333 87.5V79.1667C95.8305 75.4739 94.6014 71.8866 92.3389 68.968C90.0765 66.0494 86.9088 63.9649 83.3333 63.0417" stroke="#717171" stroke-width="2" stroke-linecap="round" stroke-linejoin="round"/>
<path d="M66.6667 13.0417C70.2518 13.9596 73.4294 16.0446 75.6986 18.968C77.9677 21.8913 79.1994 25.4868 79.1994 29.1875C79.1994 32.8882 77.9677 36.4837 75.6986 39.407C73.4294 42.3304 70.2518 44.4154 66.6667 45.3333" stroke="#717171" stroke-width="2" stroke-linecap="round" stroke-linejoin="round"/>
</svg>
